<svg width="35" height="35" viewBox="0 0 35 35" fill="none" xmlns="http://www.w3.org/2000/svg">
<path d="M32.3511 17.2607L18.2725 3.19239C18.1711 3.09082 18.0507 3.01024 17.9181 2.95526C17.7856 2.90028 17.6435 2.87198 17.5 2.87198C17.3565 2.87198 17.2144 2.90028 17.0819 2.95526C16.9493 3.01024 16.8289 3.09082 16.7275 3.19239L2.64893 17.2607C2.23877 17.6709 2.00635 18.228 2.00635 18.8091C2.00635 20.0156 2.9873 20.9966 4.19385 20.9966H5.67725V31.0352C5.67725 31.6401 6.16602 32.1289 6.771 32.1289H15.3125V24.4727H19.1406V32.1289H28.229C28.834 32.1289 29.3227 31.6401 29.3227 31.0352V20.9966H30.8061C31.3872 20.9966 31.9443 20.7676 32.3545 20.354C33.2056 19.4995 33.2056 18.1152 32.3511 17.2607Z" fill="#5F5F5F"/>
</svg>
